<?xml version="1.0" encoding="utf-8"?>
<!-- Generator: Adobe Illustrator 27.0.0, SVG Export Plug-In . SVG Version: 6.00 Build 0)  -->
<svg version="1.1" id="Layer_1" xmlns="http://www.w3.org/2000/svg" xmlns:xlink="http://www.w3.org/1999/xlink" x="0px" y="0px"
	 viewBox="0 0 1022 615" style="enable-background:new 0 0 1022 615;" xml:space="preserve">
<style type="text/css">
	.st0{fill:#FFFFFF;}
</style>
<g>
	<g>
		<path class="st0" d="M123.2,362.1c-8.8,0-12.7-3.9-12.7-12.7V121.4c0-8.8,3.9-12.7,12.7-12.7h56.7c7.4,0,12,2.8,16.2,10.6
			l31.7,57.4c2.5,4.2,3.5,6,6.3,6h3.2c2.8,0,3.9-1.8,6.3-6l31.3-57.4c4.2-7.7,8.8-10.6,16.2-10.6h57c8.8,0,12.7,3.9,12.7,12.7v228.1
			c0,8.8-3.9,12.7-12.7,12.7h-54.2c-9.1,0-12.7-3.9-12.7-12.7V225.6l-20.8,38.4c-4.2,8.1-9.5,11.3-18.7,11.3h-14.1
			c-9.2,0-14.4-3.2-18.7-11.3l-20.8-38.4v123.9c0,8.8-3.9,12.7-12.7,12.7H123.2z"/>
		<path class="st0" d="M422,362.1c-8.8,0-12.7-3.9-12.7-12.7V121.4c0-8.8,3.9-12.7,12.7-12.7h56.7c7.4,0,12,2.8,16.2,10.6l31.7,57.4
			c2.5,4.2,3.5,6,6.3,6h3.2c2.8,0,3.9-1.8,6.3-6l31.3-57.4c4.2-7.7,8.8-10.6,16.2-10.6h57c8.8,0,12.7,3.9,12.7,12.7v228.1
			c0,8.8-3.9,12.7-12.7,12.7h-54.2c-9.1,0-12.7-3.9-12.7-12.7V225.6l-20.8,38.4c-4.2,8.1-9.5,11.3-18.7,11.3h-14.1
			c-9.2,0-14.4-3.2-18.7-11.3l-20.8-38.4v123.9c0,8.8-3.9,12.7-12.7,12.7H422z"/>
		<path class="st0" d="M720.8,362.1c-8.8,0-12.7-3.9-12.7-12.7V121.4c0-8.8,3.9-12.7,12.7-12.7h107.7c64.1,0,83.1,27.8,83.1,68.6v45
			c0,40.8-19,68.6-83.1,68.6H788v58.4c0,8.8-3.9,12.7-12.7,12.7H720.8z M787.3,227.7h31.7c13.7,0,16.5-8.1,16.5-17.2v-18.7
			c0-9.2-2.8-17.2-16.5-17.2h-31.7V227.7z"/>
	</g>
	<g>
		<path class="st0" d="M151.8,479.4c0,8.5-2.3,15-6.9,19.5c-4.6,4.5-11.2,6.7-19.9,6.7h-14.2v-51.4h15.7c8,0,14.2,2.2,18.6,6.6
			S151.8,471.4,151.8,479.4z M145.4,479.6c0-6.7-1.7-11.8-5-15.2c-3.4-3.4-8.4-5.1-15-5.1h-8.7v41.1h7.3c7.1,0,12.5-1.8,16.1-5.3
			C143.6,491.6,145.4,486.5,145.4,479.6z"/>
		<path class="st0" d="M206.4,505.6v-51.4h6v51.4H206.4z"/>
		<path class="st0" d="M291.7,458.8c-5.6,0-10.1,1.9-13.4,5.6c-3.3,3.8-4.9,8.9-4.9,15.4c0,6.7,1.6,11.9,4.7,15.6
			c3.2,3.7,7.6,5.5,13.5,5.5c3.6,0,7.7-0.6,12.3-1.9v5.2c-3.6,1.3-8,2-13.2,2c-7.6,0-13.4-2.3-17.5-6.9c-4.1-4.6-6.2-11.1-6.2-19.6
			c0-5.3,1-9.9,3-13.9c2-4,4.8-7.1,8.6-9.2c3.7-2.2,8.1-3.2,13.2-3.2c5.4,0,10.1,1,14.1,3l-2.5,5.1
			C299.5,459.7,295.6,458.8,291.7,458.8z"/>
		<path class="st0" d="M374.1,505.6h-6v-46.1h-16.3v-5.3h38.5v5.3h-16.3V505.6z"/>
		<path class="st0" d="M441.3,505.6v-51.4h6v51.4H441.3z"/>
		<path class="st0" d="M549.2,479.8c0,8.2-2.1,14.7-6.2,19.4c-4.2,4.7-9.9,7.1-17.3,7.1c-7.6,0-13.4-2.3-17.5-6.9
			c-4.1-4.6-6.2-11.2-6.2-19.6c0-8.4,2.1-14.9,6.2-19.5s10-6.9,17.6-6.9c7.4,0,13.1,2.3,17.3,7C547.1,465.1,549.2,471.6,549.2,479.8
			z M508.2,479.8c0,7,1.5,12.2,4.4,15.8c3,3.6,7.3,5.4,12.9,5.4c5.7,0,10-1.8,12.9-5.4c2.9-3.6,4.4-8.9,4.4-15.9
			c0-6.9-1.4-12.2-4.3-15.7c-2.9-3.6-7.2-5.4-12.8-5.4c-5.7,0-10,1.8-13,5.4C509.7,467.7,508.2,472.9,508.2,479.8z"/>
		<path class="st0" d="M644,505.6h-6.8l-28.1-43.1h-0.3c0.4,5.1,0.6,9.7,0.6,13.9v29.2h-5.5v-51.4h6.7l28,43h0.3
			c0-0.6-0.2-2.7-0.3-6.1c-0.2-3.4-0.2-5.9-0.2-7.4v-29.5h5.6V505.6z"/>
		<path class="st0" d="M733.6,505.6l-6.4-16.3h-20.6l-6.3,16.3h-6l20.3-51.6h5l20.2,51.6H733.6z M725.3,483.8l-6-15.9
			c-0.8-2-1.6-4.5-2.4-7.4c-0.5,2.2-1.3,4.7-2.2,7.4l-6,15.9H725.3z"/>
		<path class="st0" d="M796,484.2v21.4h-6v-51.4h14.1c6.3,0,11,1.2,14,3.6c3,2.4,4.5,6,4.5,10.9c0,6.8-3.4,11.4-10.3,13.8l14,23.1
			h-7.1l-12.4-21.4H796z M796,479.1h8.2c4.2,0,7.3-0.8,9.3-2.5c2-1.7,3-4.2,3-7.5c0-3.4-1-5.8-3-7.3c-2-1.5-5.2-2.2-9.6-2.2H796
			V479.1z"/>
		<path class="st0" d="M890.8,479.9l13.7-25.7h6.5l-17.2,31.5v19.9h-6v-19.6l-17.1-31.7h6.5L890.8,479.9z"/>
	</g>
	<rect x="110.5" y="406" class="st0" width="801" height="4"/>
</g>
</svg>
