<?xml version="1.0" encoding="utf-8"?>
<!-- Generator: Adobe Illustrator 27.0.0, SVG Export Plug-In . SVG Version: 6.00 Build 0)  -->
<svg version="1.1" id="demBones" xmlns="http://www.w3.org/2000/svg" xmlns:xlink="http://www.w3.org/1999/xlink" x="0px" y="0px"
	 viewBox="0 0 600 1200" style="enable-background:new 0 0 600 1200;" xml:space="preserve">
<style type="text/css">
	.st0{fill:#F3BEA2;stroke:#966258;stroke-width:0.3218;}
	.st1{fill:#DCA984;}
	.st2{opacity:0;fill:#ED1C24;stroke:#966258;stroke-width:0.3218;}
	.st3{fill:#CC9A72;}
</style>
<g id="fibula">
	<path id="path421_00000013174170779939569470000016582936717237142962_" class="st0" d="M302.9,743.5c-0.8-6.7-2.7-11.9-7.3-11.1
		c2.3,0.8,5.4,0.7,7.7,0.8c-1.1-11.6-10.6-31.3-22.2-35.5c-0.5,6.2-4.9,12.1-6.4,18.3c-1.9,7.9,1.5,12.2,4.3,19.3
		c1.1-0.1,2.6,0.4,3.8,0.3c-2,30.1,0.6,63.6,7.4,93.3c8.6,37.6,7.2,75.4,12.5,113.5c2.8,20.3,3.8,41.1,7.7,61.3
		c3.1,16,6.9,32,6.4,48.3c-0.4,13.9-3.2,28.6-2,42.5c1.1,12.7,0.9,22.8-2.9,35.5c-2,6.8-1.1,11.3,0.9,19c3.7,0.3,13.9-4.7,17.2-7
		c5.1-3.6,6.4-7.3,7.2-14.3c1.7-15.9-4-31.5-2.1-47c1.7-13.5-1.1-26.6-2.1-40.1c-1-13.8-2.4-28.1-3.1-41.7
		c-0.7-13.7-2.6-26.9-4-40.4c-2.5-22.8-4.6-44-9-66.5c-4.7-24-8.3-48.2-9.6-72.6c-1-17.3-2-34.9-3.9-52.2c-1.1-9.4,3-27.2-5.8-34.1
		c10.4-0.5,5.6-15.5,2.8-21.2c-3.4-6.7-9.7-24.5-17.4-14.5c0.8,0.2,1.5-0.1,2-0.9"/>
	<path id="path423_00000107560545785917445700000012793697097676012192_" class="st1" d="M287.1,707.8c-5.3,3.5-6.6,11-4.2,16.3
		c1-0.3,2-0.5,3-0.9c-1,5,2.9,6.7,7,7.1c-7.7-0.7-11.3,5.4-15.3-5.4c-3.2-8.5,0.2-18.8,7.2-24.2c1.4,2,3.3,4,4.4,6"/>
	<path id="path425_00000054242075478711792160000010813328177211162516_" class="st1" d="M301.4,779.5c0.8,11.1-3.8,21.9-2.1,32.7
		c1.4,9.1,4.7,18.4,6.2,27.4c0.7-9.8-1.6-19.9-2.1-29.6c-0.5-9.6,2.9-24-1-32.6"/>
	<path id="path427_00000000945121423212373330000009957002994227423389_" class="st1" d="M308.6,966.9c6.6,25.5,11.6,52,14.1,77.8
		c2.1,22-1,49.6,6.5,70.3c-3-7.9-4.5-11.6-8.3-2.8c-3.5,8-4.7,17.9-7.2,26.3c5.5-34.3,6.4-69.8,2.1-104.1
		c-1.6-12.8-4.1-25.2-6.3-37.9c-1.8-10.3-7.5-32.2-0.8-41.6c2.2,8.6,2.8,18.4,4.1,27.3"/>
	<path id="fibulaOverlay" class="st2" d="M302.9,743.5c-0.8-6.7-2.7-11.9-7.3-11.1c2.3,0.8,5.4,0.7,7.7,0.8
		c-1.1-11.6-10.6-31.3-22.2-35.5c-0.5,6.2-4.9,12.1-6.4,18.3c-1.9,7.9,1.5,12.2,4.3,19.3c1.1-0.1,2.6,0.4,3.8,0.3
		c-2,30.1,0.6,63.6,7.4,93.3c8.6,37.6,7.2,75.4,12.5,113.5c2.8,20.3,3.8,41.1,7.7,61.3c3.1,16,6.9,32,6.4,48.3
		c-0.4,13.9-3.2,28.6-2,42.5c1.1,12.7,0.9,22.8-2.9,35.5c-2,6.8-1.1,11.3,0.9,19c3.7,0.3,13.9-4.7,17.2-7c5.1-3.6,6.4-7.3,7.2-14.3
		c1.7-15.9-4-31.5-2.1-47c1.7-13.5-1.1-26.6-2.1-40.1c-1-13.8-2.4-28.1-3.1-41.7c-0.7-13.7-2.6-26.9-4-40.4c-2.5-22.8-4.6-44-9-66.5
		c-4.7-24-8.3-48.2-9.6-72.6c-1-17.3-2-34.9-3.9-52.2c-1.1-9.4,3-27.2-5.8-34.1c10.4-0.5,5.6-15.5,2.8-21.2
		c-3.4-6.7-9.7-24.5-17.4-14.5c0.8,0.2,1.5-0.1,2-0.9"/>
</g>
<g id="tibia">
	<path id="path431_00000129917320536905451680000009484964427885163930_" class="st0" d="M280.4,654.7c-3.5,7.3-0.6,20.6-0.1,28.5
		c0.6,10.8,5.9,18.5,12.5,26.7c7.8,9.6,14.1,24,18.6,35.6c12.8,32.9,14.3,72.9,14.1,107.8c-0.1,18.3,1.3,37.1,3.1,55.2
		c1.8,17.9,6.1,34.6,9.2,52.3c7.4,42.2,4,85,4.9,127.6c0.3,16-9.2,31.7-3.6,47.6c4.5,12.5,22.5,13,33.2,18.3
		c4.2,2.1,6.6,6.7,11.7,7.6c13.8,2.2,20.2-17.2,22.4-27.3c2.9-13.6-5.1-24.7-8.5-37.6c-1.7-6.3-1.2-12.1-1.9-18.3
		c-0.9-7.9-4.1-15.7-6.1-23.4c-4.5-17.4-7.4-35.3-7.1-53.3c0.2-16.1,3-32.4,2-48.4c-0.8-13.2-2.4-26.5-3-39.9
		c-1.3-28.9-4.6-57.6-3.1-86.3c2.3-45,12.4-87.8,20.6-131.8c1.4-7.3-0.3-11-1.8-17.7c-1.1-4.8-0.8-3.9-0.2-9
		c0.6-5.1,3.5-5.1-0.8-10.2c-9.8-11.6-29.1-1.7-40.4,1.1c-11.7,2.9-26.9,3.8-39,3.1C313.4,662.6,281.6,652.3,280.4,654.7
		L280.4,654.7z"/>
	<path id="path433_00000049183439357211624010000014034443476730347940_" class="st1" d="M383.6,731.4c3.2-7.6,20.5-41.7,11.5-49.3
		c-4.2-3.6-16,4.7-19,8.5c5.6-6.9,13.7-13.4,15.7-22.5c3-13.7-7.4-7.9-16-6c-11.9,2.6-25.4,3.5-36.4,9.9c8.4-0.8,17.4-4.8,26.1-4.8
		c-0.3,5.4-11.5,10.6-15.7,12.9c-7.6,4.3-15.3,5.9-23.8,7.4c-6.6,1.1-17.5,0.9-22.4,5.9c4,6.3,11.4,9.9,18.7,10.5
		c4.1,0.3,18.9-0.1,21-3.7c-5.5,9.4-6.3,25.1,6.9,11.2c0.8,3.9-2,4.6-2.1,7.7c-0.3,5.3,0.4,3.1,2.6,8.4c4.2,10.5,5.9,26.9,4.8,37.1
		c2.2-10.8,2.5-21,3-31c0.5-9.3,8.3-21.5,16.3-25.6c-0.5,1-1.1,2.1-1.6,3.2c4.3-6,10.2-13,17-16.3c-1.4,5.6-26.2,31.1-18.5,33.7
		c-1.7,5.3,0,13.9-0.6,19.2c-1,8.5-4.7,17.9-6.4,26.6c-6.1,31.7-1.3,65-3,97.3c-1,18-0.9,37,0.1,55.3c1.3,24.6,7.2,51.2,4.5,75.7
		c-3.1,27.5,3.8,51.2,9.4,77.7c2.9,13.7,20.4,46.5,4.7,58.4c-2.2-2.7-5.1-4-7.7-2.2c-1.1-4.8-2.1-10.6-2.8-15.7
		c-0.6,7.2-3.2,10.3,1,16.1c2.6,3.6,12.7,13.4,16.3,14.2c-1.1-0.3,1.5-37.8,13.3-30.7c2.4-14.8-5.6-35.8-9.7-50.1
		c-3.5-12.2-9.8-23.9-10.6-36.6c-1.8-29.1-2-57.6-3.8-86.6c-2.2-34.8-3.3-68.8-3.3-104c0-21.7,0.5-43.9,2.3-65.5
		C376.1,763.3,378,744.7,383.6,731.4L383.6,731.4z"/>
	<path id="path435_00000142160809777475236990000007728657124105022649_" class="st1" d="M334.7,753.9c-0.3-1.7-1-2.5-2.2-2.4
		c-0.6,15.6,3.9,36.3,10.4,50.3c-0.2-8.7-0.5-16.8-1.9-25.5c-0.9-5.5-4.4-16.8-3.1-22.3c1.5-6.3,9.8-7.5,7.8-15.5
		c-2.2,3.3-7.4,11.4-12.9,11.1c-4.6-0.3-4.9-8.7-11.5-3c-0.6-1.4-1.8-3.2-2.1-4.8c3.4,10.8,4.1,22.8,8.3,33.2
		c-0.4-8-5.3-19.4,0-26.3"/>
	<path id="path437_00000135686465454823722860000017387829274026811838_" class="st3" d="M390.1,674.8c2.1-1.7,6.5-9,5.6-11.9
		c-1.9-6.3-3.6-1.5-7.4-3.2c10.6,4.5-13.2,18.7-16.4,22.4c2.9-2.3,8.7-3.1,9.4,1.9c0.8,5.1-7.1,9.4-10.5,11.7
		c-5.3,3.5-7.8,6.9-12.3,10.8c9.5-8.2,19.3-15.9,30-22.1c-0.3,0.6-0.5,1.2-0.5,1.8c1.9-2,4.5-2.2,6.9-2.8c0.4,1.5,1.2,3.1,1.2,4.6
		C395.5,683.3,394.1,677.6,390.1,674.8z"/>
	<path id="path439_00000145037152037750827190000009633183707288501381_" class="st3" d="M373.6,956.7c0.1,19.8,2.8,39.4,4.1,59.1
		c1.1,16.9,6.4,32.9,8.2,49.1c-2.7-24.5-6.1-48.7-6.1-73.4c0-11.8,3-33.7-3.8-43c-1.7,4.5-1.5,9.5-1.3,14.3"/>
	<path id="path441_00000145043285067341010070000010002638540472941194_" class="st3" d="M377.7,1141c6.2,0.6,10.5,5.4,14.2,9.2
		c0.4-4.8-1.8-14.3,1.2-18.5c5.1-7.1,6.7,0.6,6.3,6.1c9.8-5.6,2.7-24.3-3.3-30.4c-4.3,11.7-4.2,28.2-15.3,36.6"/>
	<path id="path443_00000066503641617338854860000016150903852712736921_" class="st3" d="M351.1,1113.3c-2.3,7.6-9.5,22.2,4,19.3
		c-2.7-6.7-4.1-12.2-0.9-19.3"/>
	<path id="path445_00000047765672226203951100000003905050502881098423_" class="st3" d="M380,770.2c0.4-4.6,1-9.1,2-13.4
		c1.8-7.6,6.3-14.5,7.4-22.2c0.7-5,0-10.4,0.6-15.6c0.6-4.3,1.5-25.2,7.2-26.5c-1.2,0.3-3.9,1.9-4.9,2.8c9.8,14-9.4,29.3-13.1,41.6
		c-5.3,17.8-3.3,36.7-5.4,54.9c-3.3,29.4-1.4,59.4-1.3,88.8c0-22.5,2.6-44.8,5.4-67C379.7,799.7,378.8,784.4,380,770.2z"/>
	<path id="tibiaOverlay" class="st2" d="M280.4,654.7c-3.5,7.3-0.6,20.6-0.1,28.5c0.6,10.8,5.9,18.5,12.5,26.7
		c7.8,9.6,14.1,24,18.6,35.6c12.8,32.9,14.3,72.9,14.1,107.8c-0.1,18.3,1.3,37.1,3.1,55.2c1.8,17.9,6.1,34.6,9.2,52.3
		c7.4,42.2,4,85,4.9,127.6c0.3,16-9.2,31.7-3.6,47.6c4.5,12.5,22.5,13,33.2,18.3c4.2,2.1,6.6,6.7,11.7,7.6
		c13.8,2.2,20.2-17.2,22.4-27.3c2.9-13.6-5.1-24.7-8.5-37.6c-1.7-6.3-1.2-12.1-1.9-18.3c-0.9-7.9-4.1-15.7-6.1-23.4
		c-4.5-17.4-7.4-35.3-7.1-53.3c0.2-16.1,3-32.4,2-48.4c-0.8-13.2-2.4-26.5-3-39.9c-1.3-28.9-4.6-57.6-3.1-86.3
		c2.3-45,12.4-87.8,20.6-131.8c1.4-7.3-0.3-11-1.8-17.7c-1.1-4.8-0.8-3.9-0.2-9c0.6-5.1,3.5-5.1-0.8-10.2
		c-9.8-11.6-29.1-1.7-40.4,1.1c-11.7,2.9-26.9,3.8-39,3.1C313.4,662.6,281.6,652.3,280.4,654.7L280.4,654.7z"/>
</g>
<g id="femur">
	<path id="path469_00000179636829574690163600000010111535602947913382_" class="st0" d="M384.4,572.9
		c-18.4-39.2-29.7-79.3-43-120.7c-18.8-58.8-36.5-117.9-53.5-177.1c-6.7-23.3-10.5-46.5-17.4-69.7c-6.2-20.6-18.5-44.2-13-66.2
		c-4.6,9.6-1.8,32.9,4.9,40.6c0.6-7.2,2-14.1,2.3-21.4c0.3-12-4.2-21.7-0.9-33.6c2.2-8.1,12.8-33.2,25.4-30.1
		c-8-2.1-21,2.4-27.2,8.1c9.7-12.4,24.3-2.8,34.5-13c4.8-4.8,6.8-11.4,6.2-18.2c-1.2-13.2-20-35.9-34.9-34.1
		c-15.7,1.9-14.5,23.5-21.7,32.6c-4.1,5.2-14.5,10.1-20.9,10.5c4-10-13.3-4.6-17.6-2.9c-10.6,4.3-8,8.2-9.7,18.2
		c-1.5,9.2-8.5,17.4-8,26.6c0.6,10,9,15.2,13.5,23.5c11.2,20.4,17.8,43.1,24.6,65.6c8,26.3,16.2,51.6,20.3,78.5
		c4.5,29.1,15.1,56.7,21.7,85.3c7.7,33.1,17.6,66.5,22,100c4.1,30.9,3.6,66.6-1,97.5c-2.6,16.9-16.1,32.1-15.2,49.6
		c0.6,11.6,14.6,25,26.5,25c10.5,0,19.1-4.9,28.9-8c14.5-4.5,25.3,1,39.1,0.2c12.8-0.7,20.4-8.1,27.2-18.7
		C409.8,601.8,392.2,589.6,384.4,572.9z"/>
	<path id="path473_00000093886280962600815550000008595433384252479406_" class="st1" d="M293.2,631.7c7.1,4,11.1-1.3,17.3-1.2
		c-0.3,1-0.6,1.9-0.8,3c2.3,1,5.4,0.9,8.1,0c-11,12.4,20,9.5,21.6-1.1c1.3-9-24.1-24.3-31.6-23.7c0.6-8.6-11.1-10-16.4-13.4
		c4.2-14.7,11.3-36.8,9.8-51.7c-2.1,7.7-6.1,34.2-1.1,41.7c4.2,6.3,11.1,3.2,16.5,2.1c1.6,8.7,17.2,16.9,23.7,21.7
		c10.6,7.7,28.5,16,36.9,0.7c2.1-3.7,3.1-13.6,2.1-17.4c-1.4-5.2-7.5-13.7-12.2-5.9c8.2-12.3-10.3-36.9-14.7-48.3
		c-4.1-10.6-9-20.2-10.3-31.6c-0.9-8.1-0.9-16-2.8-24c-8.9-37.7-27.1-72.5-32.5-111.4c-4.4-31.7-15.2-61.3-26.9-91.1
		c-10.5-26.7-14-55.5-23.8-82.2c-2-5.4-3.5-17.4-9.6-19.1c0.7-1,2.7-2.7,3.7-3.2c4.7,3.2,3.2,10.3,9.1,12.4
		c1.4-8.7-7.4-19.4-12.4-25.4c-9.8,5.9-7.7-15-8.1-19.5c-0.6-0.1-1.2-0.2-1.8-0.4c4.1-7.6-5.4-8.7-6.4-14.1c-0.7-4.1,4.9-9.8,5-14.3
		c0.1-3.8-1.7-10-3.7-13c3,4.6,7.7,11.7,12.8,14.1c3.9,1.8,7.5-1.1,9.9-3.9c3-3.6,6.2-7,10.1-9.7c1.2-0.8,13.6-7.4,14.3-5.1
		c0.8,2.5-4.7,4.7-6,6.3c-2.9,3.3-5.5,7-7.4,11c-2.9,5.9-5,13.9-4.5,20.5c0.5,6.1,1.8,12.4,2.1,18.6c0.2,3-0.2,5.9-0.7,8.8
		c-0.6,3.6-0.6,9-2,12.1c-2.8-5.8-3.8-13.9-4.2-20.3c-0.2-3.3,0.1-7.4,1.1-10.5c0.5-1.7,2-4.4,0.4-6c-1.6,0.9-2.2,4.7-2.7,6.5
		c-5.3,19.6,4,37.7,10.7,55.7c8.4,22.6,9.2,47.3,17.5,70.4c10.7,29.7,15.8,59.6,23.6,90.1c12.1,47.3,27.4,93,42,139.5
		c7.1,22.6,17.6,43.7,26.1,65.6c7.6,19.8,30.3,34.2,16.7,57.9c-4.8,8.4-13.4,14.2-23,15.5c-3.1,0.4-29.5-6.4-26.9-8.8
		c-6.1,5.6-8.7,10.3-17.7,12.9c-8.5,2.5-17.6,1.4-25.6-2c-6.9-2.9-16.4-5.4-19.9-12.7c-4-8.4,0.5-21.4,6.4-27.7
		c0.5,12.4,21.6,13.2,15.8,26.1c-1.1-4.9-8.2-16.6-14.6-12.7C278.6,617.7,288.9,629.2,293.2,631.7L293.2,631.7z"/>
	<path id="path475_00000160886388652287701490000001973205612133408686_" class="st1" d="M226.3,85.8c-0.1,2.7,0.2,5.6,1.3,8
		c1.9-10.9,18-11.7,21.2-22.3c-3,3.9-9.1,7.2-13.5,9.6c-3.6,2-8.5,3.8-12.6,4.1c0.7-2,0.3-3.9-1.2-5.4c-2.3-2.3-3.8-1.6-6.2-0.2
		c2.7,0.4,3.7,1.6,1.1,3.2c-3.4,2.2-6.8,2.3-9.6,5.6c2.3-3.5,15.5-8.2,17.4-2.3"/>
	<path id="path477_00000104670785261819038780000001631019368997978511_" class="st1" d="M218.5,133c0.8,4.8-2.4,11.1-6.5,13.4
		c-0.8-1.2-4-3.4-5.3-2.1c-1.4,1.3,0.4,4.9,1,6c-1.4-7.1-7.8-10.6-10.9-16.7c3.9-0.9,6.6,5.8,10.2,6.4c2.2,0.4,4.9-0.6,6.8-1.8
		C214.9,137.5,218.7,134.6,218.5,133L218.5,133z"/>
	<path id="path483_00000075865634831625304670000006235474076616707990_" class="st3" d="M258.4,139.6c-0.8,5.2-1.8,9.5-1.5,14.8
		c0.3,5.2,1.3,10.9,3.1,15.8c-0.5-6.6-1.6-13.1-1.2-19.7c0.1-1.9,1-4,1.1-5.8c0-1.9-1.3-3.5-1.4-5.4"/>
	<path id="path485_00000089571972257403086070000003396832854205277080_" class="st3" d="M281,95.5c-4.8,2.1-8.1,6.2-11.3,10.2
		c2.5-4.3-4.3-1-5.4-0.4c-4.2,2.1-8,4.3-11.5,7.5c-1.1,1-2.6,3.8-4.3,3.9c-1.1,0-3-1.5-3.9-2c-2.7-1.4-4.5-2.9-6.7-4.8
		c2.9,2.7,4.4,4.5,8.7,4.2c9.1-0.7,13.4-10.4,21.1-14.4C272,97.3,276.7,97.2,281,95.5z"/>
	<path id="path487_00000167396864074618938600000008063166367196638379_" class="st3" d="M380.1,617.5c2.5-3.9,8.7-19.7,1.6-21.7
		c3.9,1.1-5.2-26.2-5.4-27.6c1.6,0.7,1.6,1.1,3-0.2c2.3,5.5,5.2,10.7,8.5,15.7c3.8,5.6,9.8,9.5,10,16.9c-3.3,0-6.3,13.7-8.3,16.7
		c-6.8,10.7-20.2,13.4-31.9,12.2c-2.8-0.3-6.4,0.5-9.1,0c-5-1.1-8.5-6.7-12.3-9.7c-3.5-2.8-7.1-4.4-11-6.5
		c7.7,5.4,20,14.4,29.5,15.4C363.4,629.6,375.3,625.1,380.1,617.5L380.1,617.5z"/>
	<path id="femurOverlay" class="st2" d="M384.4,572.9c-18.4-39.2-29.7-79.3-43-120.7c-18.8-58.8-36.5-117.9-53.5-177.1
		c-6.7-23.3-10.5-46.5-17.4-69.7c-6.2-20.6-18.5-44.2-13-66.2c-4.6,9.6-1.8,32.9,4.9,40.6c0.6-7.2,2-14.1,2.3-21.4
		c0.3-12-4.2-21.7-0.9-33.6c2.2-8.1,12.8-33.2,25.4-30.1c-8-2.1-21,2.4-27.2,8.1c9.7-12.4,24.3-2.8,34.5-13
		c4.8-4.8,6.8-11.4,6.2-18.2c-1.2-13.2-20-35.9-34.9-34.1c-15.7,1.9-14.5,23.5-21.7,32.6c-4.1,5.2-14.5,10.1-20.9,10.5
		c4-10-13.3-4.6-17.6-2.9c-10.6,4.3-8,8.2-9.7,18.2c-1.5,9.2-8.5,17.4-8,26.6c0.6,10,9,15.2,13.5,23.5
		c11.2,20.4,17.8,43.1,24.6,65.6c8,26.3,16.2,51.6,20.3,78.5c4.5,29.1,15.1,56.7,21.7,85.3c7.7,33.1,17.6,66.5,22,100
		c4.1,30.9,3.6,66.6-1,97.5c-2.6,16.9-16.1,32.1-15.2,49.6c0.6,11.6,14.6,25,26.5,25c10.5,0,19.1-4.9,28.9-8
		c14.5-4.5,25.3,1,39.1,0.2c12.8-0.7,20.4-8.1,27.2-18.7C409.8,601.8,392.2,589.6,384.4,572.9z"/>
</g>
<g id="patella">
	<path id="path2389_00000147898394196274512040000010877723003420068758_" class="st0" d="M357.8,634.9c-13.5-11.5-27.5-15-41.7-3.9
		c-4.2,3.3-12.2,6.3-15,10.4c-2.7,4-4.4,12.8-4,17.5c0.7,7.3,7.6,13.9,12.3,19.4c4.2,4.9,9.7,12.2,16.1,13.7
		c15.8,3.7,29.3-7.5,36.3-20c3.6-6.4,7-10.3,7.5-17.6C369.7,646,364.5,640.8,357.8,634.9L357.8,634.9z"/>
	<path id="path2391_00000183228102334125247280000015482156663093444527_" class="st1" d="M342,689.5
		c-21.5,10.7-49.2-32.5-33.3-37.6c-1,4.4,5.3,13.8,9.9,8.6c3.4-3.8-4.9-8.8-6.9-10.9c0.8-0.7,2.3-1.2,3.5-1.4
		c2.8,8.3,15.3,3.5,5.8-3.1c2.5-1.7,12.6,4.5,16.5,5.2c5.9,1,13.6,2.5,17-3.7c-1.6-1.4-3.4-3.5-4.5-5.4c6.3-2.5,10.8,1.5,15.8,6.2
		c5.4,5.2,4.1,9.1,0.9,15.9C362,673.4,352,684.5,342,689.5L342,689.5z"/>
	<path id="path2393_00000141424088726750065870000018277168182912219286_" class="st3" d="M326.3,687.4c6.2,3.1,20-4.8,17-12.1
		c3.1-2.4,6-5.5,9-7.8c0.2,0.8,0.7,1.5,0.9,2.2c9.5-2-0.2-10.3-3.5-13c0.3-2.1,0.8-4,1.4-6.1c11-0.1,3.8-9.7,0.4-13.1
		c-1.6,0.6-2.9,0.2-4.6,0.6c0.1-0.4,1.4-3.1,1.6-3.5c6.4,4.5,17.6,10.2,16.8,19.7c-1.1,12.1-9.6,23.4-18.9,30
		c-12.2,8.6-26.1,10.5-33.1-6c7.7-2.6,8.4,12.7,17.6,7.5"/>
	<path id="patellaOverlay" class="st2" d="M357.8,634.9c-13.5-11.5-27.5-15-41.7-3.9c-4.2,3.3-12.2,6.3-15,10.4
		c-2.7,4-4.4,12.8-4,17.5c0.7,7.3,7.6,13.9,12.3,19.4c4.2,4.9,9.7,12.2,16.1,13.7c15.8,3.7,29.3-7.5,36.3-20
		c3.6-6.4,7-10.3,7.5-17.6C369.7,646,364.5,640.8,357.8,634.9L357.8,634.9z"/>
</g>
</svg>
